Coordinates
version=1
nRows=5
nColumns=42
inDegrees=yes

Units are S.I. units (second, meters, Newtons, ...)
If the header above contains a line with 'inDegrees', this indicates whether rotational values are in degrees (yes) or radians (no).

endheader
time	pelvis_tilt	pelvis_list	pelvis_rotation	pelvis_tx	pelvis_ty	pelvis_tz	hip_flexion_r	hip_adduction_r	hip_rotation_r	knee_angle_r	knee_adduction_r	knee_angle_r_beta	ankle_angle_r	subtalar_angle_r	mtp_angle_r	hip_flexion_l	hip_adduction_l	hip_rotation_l	knee_angle_l	knee_adduction_l	knee_angle_l_beta	ankle_angle_l	subtalar_angle_l	mtp_angle_l	lumbar_extension	lumbar_bending	lumbar_rotation	arm_flex_r	arm_add_r	arm_rot_r	elbow_flex_r	pro_sup_r	wrist_flex_r	wrist_dev_r	arm_flex_l	arm_add_l	arm_rot_l	elbow_flex_l	pro_sup_l	wrist_flex_l	wrist_dev_l
      1.32000000	     13.81678019	     -5.81111256	      4.02676954	      0.28462238	      0.85309731	     -0.16202190	      5.08116610	      8.37089543	    -14.55704174	     21.07384744	     -1.87640524	      0.36780802	     12.09183628	     -9.96566107	     -7.51702261	    -24.86418678	     -9.58470296	     -1.31324404	     42.79506142	      6.72250742	      0.74691473	     -7.80663557	    -16.23147996	     -7.51702261	    -27.70965295	      6.82170507	      3.32009186	     -5.17260292	     -6.66033230	    -10.50802996	     26.25270821	     90.00000001	      0.00000000	      0.00000000	     20.47334820	     -6.58209700	      4.53868538	     42.05617888	     90.00000001	      0.00000000	      0.00000000
      1.33000000	     13.99728588	     -5.87644204	      3.84946085	      0.29594385	      0.85460869	     -0.16057785	      3.88074448	      8.70015936	    -14.43514476	     20.75198991	     -1.93907295	      0.36219055	     12.86326628	     -9.35641138	     -7.51660406	    -23.55147801	     -9.83861920	     -1.13022457	     45.78328975	      6.51203621	      0.79906915	     -8.20462604	    -17.02766557	     -7.51660406	    -27.92959182	      6.79238199	      3.53300948	     -4.21972146	     -6.79492219	    -10.35759168	     26.39773720	     90.00000001	      0.00000000	      0.00000000	     19.72724874	     -6.54387397	      4.50166588	     40.84597184	     90.00000001	      0.00000000	      0.00000000
      1.34000000	     14.10865481	     -5.94505431	      3.66332825	      0.30704624	      0.85596844	     -0.15905974	      2.77430230	      9.03470755	    -14.43490135	     20.42556740	     -2.05876630	      0.35649340	     13.58050611	     -8.63028199	     -7.51618986	    -22.03917476	    -10.10091217	     -1.33727776	     48.75201964	      6.00822157	      0.85088326	     -7.74867834	    -17.62332371	     -7.51618986	    -28.08582169	      6.73688799	      3.75669592	     -3.21347261	     -6.93413959	    -10.17031881	     26.56284311	     90.00000001	      0.00000000	      0.00000000	     18.98958230	     -6.50029261	      4.36524948	     39.61780078	     90.00000001	      0.00000000	      0.00000000
      1.35000000	     14.55477639	     -5.75862167	      3.33110556	      0.31791318	      0.85787504	     -0.15748480	      1.35901702	      9.06752490	    -14.43826505	     20.32354787	     -2.24708814	      0.35471283	     14.02090119	     -8.14110515	     -7.51596221	    -21.03122151	     -9.98015093	     -1.52433298	     51.12581730	      5.51504238	      0.89231384	     -6.72475234	    -17.99880001	     -7.51596221	    -28.69918058	      6.34645072	      4.11538314	     -2.17314172	     -7.01310104	    -10.03035881	     26.86921822	     90.00000001	      0.00000000	      0.00000000	     18.21960222	     -6.50877363	      4.28533738	     38.80173944	     90.00000001	      0.00000000	      0.00000000
      1.36000000	     14.31134689	     -6.04548552	      3.28565166	      0.32871636	      0.85854720	     -0.15613299	      0.66203921	      9.63559837	    -14.47288889	     19.89556857	     -2.39452577	      0.34724318	     14.92510512	     -7.11788743	     -7.51518159	    -18.73981346	    -10.53757133	     -3.14347561	     54.19534876	      3.76649437	      0.94588728	     -4.89474140	    -17.94933493	     -7.51518159	    -28.43977573	      6.55106973	      4.27821525	     -1.12710887	     -7.21093031	     -9.62782166	     27.02463265	     90.00000001	      0.00000000	      0.00000000	     17.51638352	     -6.29653373	      3.68353951	     37.21455220	     90.00000001	      0.00000000	      0.00000000
